<svg xmlns="http://www.w3.org/2000/svg" viewBox="0 0 145.6416 99.916606" height="99.917" width="145.642"><path d="M38.64 46.801c4.363.868 14.763 13.534 9.664 17.717-3.782 3.103-13.171.441-18.79-3.973 0 0-.686 3.513-3.544 3.222-2.698-.276-2.255-4.296-2.255-4.296-3.185.093-5.212-.277-6.98-.751 0 0 1.237 4.11-3.328 3.758-4.116-.317-2.9-5.906-2.9-5.906 4.512-.487 9.233-.876 17.396.322l5.476 2.792-3.436-10.845z" fill="#ccc" fill-rule="evenodd"/><path d="M41.218 45.083c17.888 6.58 27.733 12.625-13.745 15.247" fill="none" stroke="#000"/><path d="M35.634 77.296c.492-4.62-21.441-11.688-24.16-3.973-2.444 6.937-.128 19.359 8.912 18.898" fill="none" stroke="#000" stroke-linecap="round"/><path d="M11.904 99.415C-.608 97.52 1.44 83.987 5.139 76.866c2.157-4.153 19.368-.179 30.495.86M29.62 48.09c4.037 12.52 10.345 27.37 5.723 29.61" fill="none" stroke="#000" stroke-linecap="round"/><path d="M15.877 46.801c-1.721 3.722-11.612 6.86-5.154 11.167" fill="none" stroke="#000"/><path d="M41.225 66.83c1.958-2.037 7.598.706 8.466.418 1-.331.92-2.44 1.974-2.467 5.654-.148 11.753 11.815 11.275 12.68-.47.848-2.847.835-2.847.835s5.401 8.528 2.43 10.098c-2.73 1.442-8.428-7.29-8.428-7.29s1.687 4.753-.684 5.43c-2.54.725-5.429-5.733-5.429-5.733s-.771 1.666-1.556 1.86c-4.81 1.193-6.746-14.222-5.201-15.83z" fill="#fe0002" fill-rule="evenodd"/><path d="M44.983 70.058c1.883-2.77 7.619-.774 9.909 1.67.765.817.404 2.223.341 3.34-.066 1.19.205 2.793-.759 3.493-.617.449-2.278-.227-2.278-.227s-.766 1.415-1.404 1.328c-3.708-.502-7.912-6.51-5.809-9.604z" fill="#ff9801" fill-rule="evenodd"/><g style="line-height:125%;-inkscape-font-specification:Helvetica" font-weight="700" font-size="15" font-family="Roboto" letter-spacing="0" word-spacing="0" text-anchor="middle"><path style="-inkscape-font-specification:'Roboto Bold';text-align:center" d="M67.712 19.957h-2.197l-4.278-7.017v7.017H59.04V9.293h2.197l4.285 7.031V9.293h2.19v10.664zM78.405 14.867q0 1.574-.556 2.76-.557 1.187-1.597 1.832-1.033.644-2.373.644-1.326 0-2.366-.637t-1.611-1.816q-.571-1.187-.579-2.725v-.527q0-1.575.564-2.769.571-1.2 1.604-1.838 1.04-.645 2.373-.645 1.333 0 2.366.645 1.04.637 1.604 1.838.571 1.194.571 2.762v.476zm-2.226-.484q0-1.677-.6-2.549-.601-.871-1.715-.871-1.106 0-1.706.864-.6.857-.608 2.52v.52q0 1.633.6 2.534.601.9 1.729.9 1.106 0 1.7-.864.592-.871.6-2.534v-.52zM87.429 11.073h-3.267v8.884h-2.197v-8.884h-3.223v-1.78h8.687v1.78zM97.368 19.957H95.17v-4.57h-4.284v4.57h-2.198V9.293h2.198v4.321h4.284V9.293h2.198v10.664zM101.63 19.957h-2.197V9.293h2.197v10.664zM112.331 19.957h-2.197l-4.278-7.017v7.017h-2.197V9.293h2.197l4.285 7.031V9.293h2.19v10.664zM122.702 18.61q-.593.71-1.677 1.105-1.084.388-2.402.388-1.385 0-2.432-.6-1.04-.608-1.611-1.758-.564-1.15-.579-2.703v-.725q0-1.596.535-2.76.542-1.173 1.552-1.788 1.018-.623 2.38-.623 1.898 0 2.967.909 1.07.9 1.267 2.629h-2.139q-.146-.915-.651-1.34-.498-.425-1.377-.425-1.12 0-1.707.842-.586.842-.593 2.505v.681q0 1.677.637 2.534.637.857 1.868.857 1.238 0 1.765-.527v-1.838h-2v-1.619h4.197v4.255zM135.827 11.073h-3.266v8.884h-2.198v-8.884h-3.222v-1.78h8.686v1.78zM145.642 14.867q0 1.574-.557 2.76-.557 1.187-1.597 1.832-1.032.644-2.373.644-1.325 0-2.365-.637-1.04-.637-1.612-1.816-.571-1.187-.578-2.725v-.527q0-1.575.564-2.769.57-1.2 1.604-1.838 1.04-.645 2.373-.645 1.333 0 2.365.645 1.04.637 1.604 1.838.572 1.194.572 2.762v.476zm-2.227-.484q0-1.677-.6-2.549-.601-.871-1.714-.871-1.106 0-1.707.864-.6.857-.608 2.52v.52q0 1.633.6 2.534.601.9 1.73.9 1.105 0 1.698-.864.594-.871.601-2.534v-.52zM72.678 38.707V28.043h3.281q1.406 0 2.512.637 1.113.63 1.736 1.802.623 1.164.623 2.651v.491q0 1.487-.616 2.644-.608 1.157-1.72 1.794-1.114.638-2.513.645h-3.303zm2.197-8.884v7.119h1.062q1.29 0 1.97-.842.681-.843.696-2.41v-.564q0-1.626-.674-2.461-.674-.842-1.97-.842h-1.084zM91.193 33.617q0 1.574-.556 2.76-.557 1.187-1.597 1.832-1.033.644-2.373.644-1.326 0-2.366-.637T82.69 36.4q-.571-1.187-.579-2.725v-.527q0-1.575.564-2.769.572-1.2 1.604-1.838 1.04-.645 2.373-.645 1.333 0 2.366.645 1.04.637 1.604 1.838.571 1.194.571 2.762v.476zm-2.226-.484q0-1.677-.6-2.549-.601-.871-1.715-.871-1.106 0-1.706.864-.6.857-.608 2.52v.52q0 1.633.6 2.534.601.9 1.729.9 1.106 0 1.7-.864.592-.871.6-2.534v-.52zM105.234 38.707h-2.197v-4.57h-4.285v4.57h-2.197V28.043h2.197v4.321h4.285v-4.321h2.197v10.664zM113.576 34.085h-4.219v2.857h4.952v1.765h-7.149V28.043h7.134v1.78h-4.937v2.541h4.22v1.721zM119.545 34.803h-1.75v3.904h-2.197V28.043h3.962q1.89 0 2.915.842 1.025.842 1.025 2.38 0 1.092-.476 1.824-.468.725-1.428 1.158l2.307 4.357v.103h-2.358l-2-3.904zm-1.75-1.78h1.772q.828 0 1.282-.417.454-.425.454-1.165 0-.754-.432-1.186-.425-.432-1.31-.432h-1.766v3.2zM131.594 34.085h-4.219v2.857h4.951v1.765h-7.148V28.043h7.134v1.78h-4.937v2.541h4.219v1.721z"/></g><ellipse ry="24.718" rx="25.9" cy="25.218" cx="26.4" fill="#fff" stroke="#000" stroke-linejoin="round"/><path d="M12.226 12.655H33.7" fill="none" stroke="#000" stroke-linecap="round"/><circle r="1" cy="8.28" cx="36.144" fill-opacity=".973"/><circle r="1" cy="8.28" cx="12.441" fill-opacity=".973"/><path d="M16.628 55.07c-.01-1.093-.012-1.779-3.221-1.612-1.552.081-3.133-.345-3.114 1.611.019 1.928.46 1.425 3.147 1.402 2.316-.02 3.205.398 3.188-1.402zM29.524 56.572c.101-1.038.169-1.69-2.772-1.868-1.422-.087-2.82-.658-3 1.201-.177 1.833.276 1.402 2.726 1.663 2.112.225 2.88.715 3.046-.996z" fill="#fe0002" fill-rule="evenodd"/></svg>