<?xml version="1.0" encoding="UTF-8" standalone="no"?>
<svg
   xmlns:dc="http://purl.org/dc/elements/1.1/"
   xmlns:cc="http://creativecommons.org/ns#"
   xmlns:rdf="http://www.w3.org/1999/02/22-rdf-syntax-ns#"
   xmlns:svg="http://www.w3.org/2000/svg"
   xmlns="http://www.w3.org/2000/svg"
   viewBox="0 0 145.6416 99.916606"
   height="99.916603"
   width="145.6416"
   version="1.1"
   id="svg4190">
  <metadata
     id="metadata4196">
    <rdf:RDF>
      <cc:Work
         rdf:about="">
        <dc:format>image/svg+xml</dc:format>
        <dc:type
           rdf:resource="http://purl.org/dc/dcmitype/StillImage" />
        <dc:title></dc:title>
      </cc:Work>
    </rdf:RDF>
  </metadata>
  <defs
     id="defs4194" />
  <path
     id="path4241"
     d="m 38.640469,46.801075 c 4.36285,0.867991 14.76255,13.533998 9.66388,17.717101 -3.78255,3.103318 -13.1715,0.441169 -18.79087,-3.972926 0,0 -0.68555,3.513198 -3.54342,3.221291 -2.69782,-0.27556 -2.2549,-4.295055 -2.2549,-4.295055 -3.18536,0.093 -5.21208,-0.27745 -6.97947,-0.751634 0,0 1.23639,4.110366 -3.328663,3.758173 -4.1156629,-0.317522 -2.899161,-5.905701 -2.899161,-5.905701 4.510754,-0.486884 9.231674,-0.876772 17.394974,0.32213 l 5.47619,2.791785 -3.43604,-10.845013 z"
     style="fill:#cccccc;fill-rule:evenodd;stroke:none;stroke-width:1px;stroke-linecap:butt;stroke-linejoin:miter;stroke-opacity:1" />
  <path
     id="path4229"
     d="m 41.217509,45.083053 c 17.88896,6.580505 27.73392,12.624743 -13.74418,15.247444"
     style="fill:none;fill-rule:evenodd;stroke:#000000;stroke-width:1px;stroke-linecap:butt;stroke-linejoin:miter;stroke-opacity:1" />
  <path
     id="path4237"
     d="m 35.633929,77.295963 c 0.49189,-4.619074 -21.441297,-11.688258 -24.159677,-3.972925 -2.4441119,6.9369 -0.127911,19.358487 8.912237,18.89824"
     style="fill:none;fill-rule:evenodd;stroke:#000000;stroke-width:1px;stroke-linecap:round;stroke-linejoin:miter;stroke-opacity:1" />
  <path
     id="path4239"
     d="M 11.903757,99.415495 C -0.60840993,97.518816 1.4401971,83.987381 5.1390461,76.866458 7.2962991,72.713373 24.507309,76.686968 35.633929,77.725469"
     style="fill:none;fill-rule:evenodd;stroke:#000000;stroke-width:1px;stroke-linecap:round;stroke-linejoin:miter;stroke-opacity:1" />
  <path
     id="path4231"
     d="m 29.620859,48.089591 c 4.03627,12.519702 10.34372,27.371031 5.72239,29.609824"
     style="fill:none;fill-rule:evenodd;stroke:#000000;stroke-width:1px;stroke-linecap:round;stroke-linejoin:miter;stroke-opacity:1" />
  <path
     id="path4233"
     d="m 15.876679,46.801075 c -1.72063,3.722194 -11.6117709,6.860781 -5.154062,11.167142"
     style="fill:none;fill-rule:evenodd;stroke:#000000;stroke-width:1px;stroke-linecap:butt;stroke-linejoin:miter;stroke-opacity:1" />
  <path
     id="path4291"
     d="m 41.225009,66.830676 c 1.95757,-2.037308 7.59826,0.705238 8.46581,0.417596 0.99984,-0.331502 0.92109,-2.440182 1.97409,-2.467613 5.65399,-0.147283 11.75353,11.815596 11.2751,12.679735 -0.46985,0.84864 -2.84725,0.835192 -2.84725,0.835192 0,0 5.40132,8.528833 2.42965,10.098232 -2.72995,1.441746 -8.42785,-7.288949 -8.42785,-7.288949 0,0 1.68705,4.752232 -0.68334,5.428748 -2.54007,0.724947 -5.42875,-5.732454 -5.42875,-5.732454 0,0 -0.77176,1.665592 -1.55649,1.8602 -4.80941,1.192709 -6.74604,-14.222681 -5.20097,-15.830687 z"
     style="fill:#fe0002;fill-opacity:1;fill-rule:evenodd;stroke:none;stroke-width:1px;stroke-linecap:butt;stroke-linejoin:miter;stroke-opacity:1" />
  <path
     id="path4293"
     d="m 44.983379,70.057555 c 1.88279,-2.770134 7.61835,-0.773822 9.90841,1.670384 0.76536,0.816872 0.4044,2.223129 0.34167,3.340768 -0.0668,1.189527 0.20445,2.792128 -0.75926,3.492622 -0.61723,0.448644 -2.2778,-0.22778 -2.2778,-0.22778 0,0 -0.76597,1.415226 -1.40464,1.328715 -3.70762,-0.502211 -7.91157,-6.510316 -5.80838,-9.604709 z"
     style="fill:#ff9801;fill-opacity:1;fill-rule:evenodd;stroke:none;stroke-width:1px;stroke-linecap:butt;stroke-linejoin:miter;stroke-opacity:1" />
  <g
     transform="translate(0.41448607,0.30711041)"
     id="text4200"
     style="font-style:normal;font-variant:normal;font-weight:normal;font-stretch:normal;font-size:20px;line-height:125%;font-family:Helvetica;-inkscape-font-specification:Helvetica;letter-spacing:0px;word-spacing:0px;fill:#000000;fill-opacity:1;stroke:none;stroke-width:1px;stroke-linecap:butt;stroke-linejoin:miter;stroke-opacity:1">
    <path
       id="path4261"
       style="font-style:normal;font-variant:normal;font-weight:bold;font-stretch:normal;font-size:15px;font-family:Roboto;-inkscape-font-specification:'Roboto Bold';text-align:center;text-anchor:middle"
       d="m 67.297424,19.649876 -2.197265,0 -4.277344,-7.016602 0,7.016602 -2.197266,0 0,-10.6640629 2.197266,0 4.284668,7.0312499 0,-7.0312499 2.189941,0 0,10.6640629 z" />
    <path
       id="path4263"
       style="font-style:normal;font-variant:normal;font-weight:bold;font-stretch:normal;font-size:15px;font-family:Roboto;-inkscape-font-specification:'Roboto Bold';text-align:center;text-anchor:middle"
       d="m 77.990784,14.559544 q 0,1.574707 -0.556641,2.76123 -0.556641,1.186524 -1.59668,1.831055 -1.032714,0.644531 -2.373046,0.644531 -1.325684,0 -2.365723,-0.637207 -1.040039,-0.637207 -1.611328,-1.816406 -0.571289,-1.186524 -0.578614,-2.72461 l 0,-0.527343 q 0,-1.574707 0.563965,-2.768555 0.571289,-1.201172 1.604004,-1.838379 1.040039,-0.6445312 2.373047,-0.6445312 1.333008,0 2.365723,0.6445312 1.040039,0.637207 1.604004,1.838379 0.571289,1.193848 0.571289,2.76123 l 0,0.476075 z m -2.226563,-0.483399 q 0,-1.677246 -0.600586,-2.548828 -0.600586,-0.871582 -1.713867,-0.871582 -1.105957,0 -1.706543,0.864258 -0.600586,0.856933 -0.60791,2.519531 l 0,0.52002 q 0,1.6333 0.600586,2.534179 0.600586,0.900879 1.728516,0.900879 1.105957,0 1.699218,-0.864258 0.593262,-0.871582 0.600586,-2.534179 l 0,-0.52002 z" />
    <path
       id="path4265"
       style="font-style:normal;font-variant:normal;font-weight:bold;font-stretch:normal;font-size:15px;font-family:Roboto;-inkscape-font-specification:'Roboto Bold';text-align:center;text-anchor:middle"
       d="m 87.014221,10.765598 -3.266601,0 0,8.884278 -2.197266,0 0,-8.884278 -3.222656,0 0,-1.7797849 8.686523,0 0,1.7797849 z" />
    <path
       id="path4267"
       style="font-style:normal;font-variant:normal;font-weight:bold;font-stretch:normal;font-size:15px;font-family:Roboto;-inkscape-font-specification:'Roboto Bold';text-align:center;text-anchor:middle"
       d="m 96.953186,19.649876 -2.197266,0 0,-4.570313 -4.284668,0 0,4.570313 -2.197265,0 0,-10.6640629 2.197265,0 0,4.3212889 4.284668,0 0,-4.3212889 2.197266,0 0,10.6640629 z" />
    <path
       id="path4269"
       style="font-style:normal;font-variant:normal;font-weight:bold;font-stretch:normal;font-size:15px;font-family:Roboto;-inkscape-font-specification:'Roboto Bold';text-align:center;text-anchor:middle"
       d="m 101.21588,19.649876 -2.197264,0 0,-10.6640629 2.197264,0 0,10.6640629 z" />
    <path
       id="path4271"
       style="font-style:normal;font-variant:normal;font-weight:bold;font-stretch:normal;font-size:15px;font-family:Roboto;-inkscape-font-specification:'Roboto Bold';text-align:center;text-anchor:middle"
       d="m 111.91656,19.649876 -2.19726,0 -4.27734,-7.016602 0,7.016602 -2.19727,0 0,-10.6640629 2.19727,0 4.28466,7.0312499 0,-7.0312499 2.18994,0 0,10.6640629 z" />
    <path
       id="path4273"
       style="font-style:normal;font-variant:normal;font-weight:bold;font-stretch:normal;font-size:15px;font-family:Roboto;-inkscape-font-specification:'Roboto Bold';text-align:center;text-anchor:middle"
       d="m 122.28766,18.302219 q -0.59326,0.71045 -1.67725,1.105957 -1.08398,0.388184 -2.40234,0.388184 -1.38428,0 -2.43164,-0.600586 -1.04004,-0.60791 -1.61133,-1.757812 -0.56396,-1.149903 -0.57861,-2.702637 l 0,-0.725098 q 0,-1.596679 0.53466,-2.76123 0.542,-1.171875 1.55274,-1.7871096 1.01807,-0.6225586 2.38037,-0.6225586 1.89697,0 2.96631,0.9082031 1.06933,0.9008791 1.26709,2.6293941 l -2.13867,0 q -0.14649,-0.915527 -0.65186,-1.340332 -0.49805,-0.424804 -1.37695,-0.424804 -1.12061,0 -1.70654,0.842285 -0.58594,0.842285 -0.59327,2.504883 l 0,0.681152 q 0,1.677246 0.63721,2.53418 0.63721,0.856933 1.86768,0.856933 1.23779,0 1.76513,-0.527343 l 0,-1.838379 -1.99951,0 0,-1.618653 4.19678,0 0,4.255371 z" />
    <path
       id="path4275"
       style="font-style:normal;font-variant:normal;font-weight:bold;font-stretch:normal;font-size:15px;font-family:Roboto;-inkscape-font-specification:'Roboto Bold';text-align:center;text-anchor:middle"
       d="m 135.41266,10.765598 -3.2666,0 0,8.884278 -2.19727,0 0,-8.884278 -3.22265,0 0,-1.7797849 8.68652,0 0,1.7797849 z" />
    <path
       id="path4277"
       style="font-style:normal;font-variant:normal;font-weight:bold;font-stretch:normal;font-size:15px;font-family:Roboto;-inkscape-font-specification:'Roboto Bold';text-align:center;text-anchor:middle"
       d="m 145.22711,14.559544 q 0,1.574707 -0.55664,2.76123 -0.55664,1.186524 -1.59668,1.831055 -1.03271,0.644531 -2.37305,0.644531 -1.32568,0 -2.36572,-0.637207 -1.04004,-0.637207 -1.61133,-1.816406 -0.57129,-1.186524 -0.57861,-2.72461 l 0,-0.527343 q 0,-1.574707 0.56397,-2.768555 0.57128,-1.201172 1.604,-1.838379 1.04004,-0.6445312 2.37305,-0.6445312 1.333,0 2.36572,0.6445312 1.04004,0.637207 1.604,1.838379 0.57129,1.193848 0.57129,2.76123 l 0,0.476075 z m -2.22656,-0.483399 q 0,-1.677246 -0.60059,-2.548828 -0.60058,-0.871582 -1.71386,-0.871582 -1.10596,0 -1.70655,0.864258 -0.60058,0.856933 -0.60791,2.519531 l 0,0.52002 q 0,1.6333 0.60059,2.534179 0.60058,0.900879 1.72851,0.900879 1.10596,0 1.69922,-0.864258 0.59327,-0.871582 0.60059,-2.534179 l 0,-0.52002 z" />
    <path
       id="path4279"
       style="font-style:normal;font-variant:normal;font-weight:bold;font-stretch:normal;font-size:15px;font-family:Roboto;-inkscape-font-specification:'Roboto Bold';text-align:center;text-anchor:middle"
       d="m 72.263245,38.399876 0,-10.664063 3.28125,0 q 1.40625,0 2.512207,0.637207 1.113281,0.629883 1.73584,1.801758 0.622558,1.164551 0.622558,2.651367 l 0,0.490723 q 0,1.486816 -0.615234,2.644043 -0.60791,1.157226 -1.721192,1.794433 -1.113281,0.637207 -2.512207,0.644532 l -3.303222,0 z m 2.197265,-8.884278 0,7.119141 1.062012,0 q 1.289062,0 1.970215,-0.842285 0.681152,-0.842285 0.695801,-2.409668 l 0,-0.563965 q 0,-1.625977 -0.673829,-2.460938 -0.673828,-0.842285 -1.970214,-0.842285 l -1.083985,0 z" />
    <path
       id="path4281"
       style="font-style:normal;font-variant:normal;font-weight:bold;font-stretch:normal;font-size:15px;font-family:Roboto;-inkscape-font-specification:'Roboto Bold';text-align:center;text-anchor:middle"
       d="m 90.77887,33.309544 q 0,1.574707 -0.556641,2.76123 -0.556641,1.186524 -1.59668,1.831055 -1.032715,0.644531 -2.373047,0.644531 -1.325683,0 -2.365722,-0.637207 -1.040039,-0.637207 -1.611328,-1.816406 -0.571289,-1.186524 -0.578614,-2.72461 l 0,-0.527343 q 0,-1.574707 0.563965,-2.768555 0.571289,-1.201172 1.604004,-1.838379 1.040039,-0.644531 2.373047,-0.644531 1.333008,0 2.365723,0.644531 1.040039,0.637207 1.604004,1.838379 0.571289,1.193848 0.571289,2.76123 l 0,0.476075 z m -2.226563,-0.483399 q 0,-1.677246 -0.600586,-2.548828 -0.600586,-0.871582 -1.713867,-0.871582 -1.105957,0 -1.706543,0.864258 -0.600586,0.856933 -0.60791,2.519531 l 0,0.52002 q 0,1.6333 0.600586,2.534179 0.600586,0.900879 1.728515,0.900879 1.105957,0 1.699219,-0.864258 0.593262,-0.871582 0.600586,-2.534179 l 0,-0.52002 z" />
    <path
       id="path4283"
       style="font-style:normal;font-variant:normal;font-weight:bold;font-stretch:normal;font-size:15px;font-family:Roboto;-inkscape-font-specification:'Roboto Bold';text-align:center;text-anchor:middle"
       d="m 104.8194,38.399876 -2.19727,0 0,-4.570313 -4.284667,0 0,4.570313 -2.197265,0 0,-10.664063 2.197265,0 0,4.321289 4.284667,0 0,-4.321289 2.19727,0 0,10.664063 z" />
    <path
       id="path4285"
       style="font-style:normal;font-variant:normal;font-weight:bold;font-stretch:normal;font-size:15px;font-family:Roboto;-inkscape-font-specification:'Roboto Bold';text-align:center;text-anchor:middle"
       d="m 113.16168,33.778294 -4.21875,0 0,2.856445 4.95117,0 0,1.765137 -7.14843,0 0,-10.664063 7.13379,0 0,1.779785 -4.93653,0 0,2.541504 4.21875,0 0,1.721192 z" />
    <path
       id="path4287"
       style="font-style:normal;font-variant:normal;font-weight:bold;font-stretch:normal;font-size:15px;font-family:Roboto;-inkscape-font-specification:'Roboto Bold';text-align:center;text-anchor:middle"
       d="m 119.13092,34.496067 -1.75049,0 0,3.903809 -2.19726,0 0,-10.664063 3.9624,0 q 1.88965,0 2.91504,0.842285 1.02539,0.842285 1.02539,2.380371 0,1.091309 -0.47608,1.823731 -0.46875,0.725098 -1.42822,1.157226 l 2.30713,4.357911 0,0.102539 -2.3584,0 -1.99951,-3.903809 z m -1.75049,-1.779785 1.77246,0 q 0.82764,0 1.28174,-0.417481 0.4541,-0.424804 0.4541,-1.16455 0,-0.754395 -0.43213,-1.186524 -0.4248,-0.432129 -1.31103,-0.432129 l -1.76514,0 0,3.200684 z" />
    <path
       id="path4289"
       style="font-style:normal;font-variant:normal;font-weight:bold;font-stretch:normal;font-size:15px;font-family:Roboto;-inkscape-font-specification:'Roboto Bold';text-align:center;text-anchor:middle"
       d="m 131.17926,33.778294 -4.21875,0 0,2.856445 4.95117,0 0,1.765137 -7.14844,0 0,-10.664063 7.13379,0 0,1.779785 -4.93652,0 0,2.541504 4.21875,0 0,1.721192 z" />
  </g>
  <ellipse
     ry="24.718424"
     rx="25.899563"
     cy="25.218424"
     cx="26.399563"
     id="path4206"
     style="opacity:1;fill:#ffffff;fill-opacity:1;stroke:#000000;stroke-width:1;stroke-linecap:butt;stroke-linejoin:round;stroke-miterlimit:4;stroke-dasharray:none;stroke-dashoffset:0;stroke-opacity:1" />
  <path
     id="path4210"
     d="m 12.225886,12.65539 21.475273,0"
     style="fill:none;fill-rule:evenodd;stroke:#000000;stroke-width:1px;stroke-linecap:round;stroke-linejoin:miter;stroke-opacity:1" />
  <circle
     r="1"
     cy="8.2796574"
     cx="36.144115"
     id="path4212"
     style="opacity:1;fill:#000000;fill-opacity:0.97254902;stroke:none;stroke-width:0.02036966;stroke-linecap:round;stroke-linejoin:round;stroke-miterlimit:4;stroke-dasharray:none;stroke-dashoffset:0;stroke-opacity:1" />
  <circle
     r="1"
     cy="8.2801075"
     cx="12.440639"
     id="path4212-2"
     style="opacity:1;fill:#000000;fill-opacity:0.97254902;stroke:none;stroke-width:0.02036966;stroke-linecap:round;stroke-linejoin:round;stroke-miterlimit:4;stroke-dasharray:none;stroke-dashoffset:0;stroke-opacity:1" />
  <path
     id="path4243"
     d="m 16.628319,55.069055 c -0.0101,-1.092173 -0.0119,-1.777868 -3.221293,-1.610645 -1.551945,0.08086 -3.133034,-0.345708 -3.113915,1.610645 0.01884,1.928007 0.459935,1.425224 3.146483,1.402407 2.316495,-0.01968 3.205365,0.397506 3.188725,-1.402407 z"
     style="fill:#fe0002;fill-opacity:1;fill-rule:evenodd;stroke:none;stroke-width:1px;stroke-linecap:butt;stroke-linejoin:miter;stroke-opacity:1" />
  <path
     id="path4243-3"
     d="m 29.524079,56.57205 c 0.10107,-1.038218 0.16869,-1.689557 -2.772,-1.868512 -1.42199,-0.08653 -2.8193,-0.658008 -2.99939,1.201807 -0.17749,1.832867 0.27511,1.401831 2.72487,1.662891 2.11233,0.225095 2.87997,0.714808 3.04652,-0.996186 z"
     style="fill:#fe0002;fill-opacity:1;fill-rule:evenodd;stroke:none;stroke-width:1px;stroke-linecap:butt;stroke-linejoin:miter;stroke-opacity:1" />
</svg>
