<?xml version="1.0" encoding="UTF-8" standalone="no"?>
<svg
   xmlns:dc="http://purl.org/dc/elements/1.1/"
   xmlns:cc="http://creativecommons.org/ns#"
   xmlns:rdf="http://www.w3.org/1999/02/22-rdf-syntax-ns#"
   xmlns:svg="http://www.w3.org/2000/svg"
   xmlns="http://www.w3.org/2000/svg"
   viewBox="0 0 456.39789 78.730244"
   height="78.730247"
   width="456.39789"
   xml:space="preserve"
   version="1.1"
   id="svg4155"><metadata
     id="metadata4161"><rdf:RDF><cc:Work
         rdf:about=""><dc:format>image/svg+xml</dc:format><dc:type
           rdf:resource="http://purl.org/dc/dcmitype/StillImage" /><dc:title></dc:title></cc:Work></rdf:RDF></metadata><defs
     id="defs4159"><clipPath
       id="clipPath4169"
       clipPathUnits="userSpaceOnUse"><path
         id="path4171"
         d="m 0,841.89 595.28,0 L 595.28,0 0,0 0,841.89 Z" /></clipPath><clipPath
       id="clipPath4241"
       clipPathUnits="userSpaceOnUse"><path
         id="path4243"
         d="m 129.214,560.109 32.079,0 0,-34.262 -32.079,0 0,34.262 z" /></clipPath><clipPath
       id="clipPath4321"
       clipPathUnits="userSpaceOnUse"><path
         id="path4323"
         d="m 329.148,359.176 72.784,0 0,-77.739 -72.784,0 0,77.739 z" /></clipPath></defs><g
     transform="matrix(1.25,0,0,-1.25,-143.85125,945.55225)"
     id="g4163"><g
       transform="translate(134.0962,712.6816)"
       id="g4173"><path
         id="path4175"
         style="fill:#d93e3e;fill-opacity:1;fill-rule:nonzero;stroke:none"
         d="M 0,0 C -2.517,1.767 -4.71,4.15 -6.642,6.924 -7.24,5.612 -7.845,4.321 -8.449,3.097 c -2.08,-4.211 -5.106,-8.642 -7.936,-11.094 l 38.064,0 C 14.052,-6.609 6.054,-4.25 0,0" /></g><g
       transform="translate(122.397,717.3838)"
       id="g4177"><path
         id="path4179"
         style="fill:#d93e3e;fill-opacity:1;fill-rule:nonzero;stroke:none"
         d="m 0,0 c 0.917,1.855 1.843,3.892 2.752,5.924 -4.481,7.977 -7.356,17.967 -9.673,26.032 -0.135,0.469 -0.266,0.923 -0.395,1.372 l 0,-43.517 C -5.497,-8.678 -2.538,-5.138 0,0" /></g><g
       transform="translate(118.9595,750.3408)"
       id="g4181"><path
         id="path4183"
         style="fill:#d93e3e;fill-opacity:1;fill-rule:nonzero;stroke:none"
         d="m 0,0 c 2.03,-7.063 4.504,-15.667 8.063,-22.84 4.208,9.361 8.375,17.62 14.415,17.861 7.178,0.281 10.412,-8.595 13.845,-17.998 2.08,-5.695 4.232,-11.585 7.284,-15.89 1.079,-1.521 2.779,-2.664 4.272,-3.519 l 0,48.487 -49.682,0 C -1.236,4.301 -0.651,2.265 0,0" /></g><g
       transform="translate(136.1792,715.6479)"
       id="g4185"><path
         id="path4187"
         style="fill:#65859d;fill-opacity:1;fill-rule:nonzero;stroke:none"
         d="M 0,0 C 6.819,-4.788 16.558,-7.005 25.114,-8.167 24.503,-7.6 23.928,-6.971 23.431,-6.271 20.097,-1.569 17.861,4.552 15.699,10.472 12.731,18.598 9.934,26.271 5.402,26.093 1.078,25.919 -3.194,16.342 -6.965,7.875 -4.97,4.63 -2.676,1.879 0,0" /></g><path
       id="path4189"
       style="fill:#65859d;fill-opacity:1;fill-rule:nonzero;stroke:none"
       d="m 192.677,751.718 3.061,0 0,-43.829 -3.061,0 0,43.829 z" /><g
       transform="translate(208.7183,739.8135)"
       id="g4191"><path
         id="path4193"
         style="fill:#65859d;fill-opacity:1;fill-rule:nonzero;stroke:none"
         d="m 0,0 2.53,0 0.265,-4.924 0.199,0 c 2.861,3.26 6.517,5.722 10.041,5.722 5.124,0 7.717,-2.593 8.845,-6.516 3.658,3.985 7.183,6.516 10.838,6.516 6.386,0 9.58,-3.992 9.58,-12.238 l 0,-20.484 -2.995,0 0,20.085 c 0,6.781 -2.256,9.975 -7.115,9.975 -2.995,0 -6.055,-1.997 -9.573,-5.983 l 0,-24.077 -2.929,0 0,20.085 c 0,6.781 -2.26,9.975 -7.18,9.975 -2.861,0 -6.056,-1.997 -9.58,-5.983 l 0,-24.077 -2.926,0 L 0,0 Z" /></g><g
       transform="translate(275.7866,709.6846)"
       id="g4195"><path
         id="path4197"
         style="fill:#65859d;fill-opacity:1;fill-rule:nonzero;stroke:none"
         d="m 0,0 c 6.451,0 11.106,5.987 11.106,14.631 0,7.848 -2.794,13.703 -10.109,13.703 -3.191,0 -6.582,-1.864 -10.443,-5.257 l 0,-18.953 C -5.784,1.131 -2.459,0 0,0 m -9.446,-4.59 0,-11.637 -2.923,0 0,46.356 2.531,0 0.264,-3.992 0.2,0 c 3.126,2.462 6.915,4.79 10.835,4.79 8.515,0 12.771,-6.386 12.771,-16.296 0,-10.841 -6.582,-17.224 -14.098,-17.224 -2.995,0 -6.255,1.465 -9.58,3.924 l 0,-5.921 z" /></g><g
       transform="translate(300.2852,755.707)"
       id="g4199"><path
         id="path4201"
         style="fill:#65859d;fill-opacity:1;fill-rule:nonzero;stroke:none"
         d="m 0,0 2.924,0 0,-43.959 c 0,-1.396 0.601,-2.063 1.394,-2.063 0.27,0 0.534,0 1.202,0.133 l 0.529,-2.393 C 5.453,-48.484 4.852,-48.615 3.92,-48.615 1.328,-48.615 0,-47.02 0,-43.561 L 0,0 Z" /></g><path
       id="path4203"
       style="fill:#65859d;fill-opacity:1;fill-rule:nonzero;stroke:none"
       d="m 316.719,739.813 2.926,0 0,-31.924 -2.926,0 0,31.924 z m -1.131,10.306 c 0,1.665 1.195,2.662 2.66,2.662 1.465,0 2.662,-0.997 2.662,-2.662 0,-1.53 -1.197,-2.592 -2.662,-2.592 -1.465,0 -2.66,1.062 -2.66,2.592" /><g
       transform="translate(330.3555,713.6768)"
       id="g4205"><path
         id="path4207"
         style="fill:#65859d;fill-opacity:1;fill-rule:nonzero;stroke:none"
         d="m 0,0 c 2.73,-2.263 5.588,-4.058 10.174,-4.058 4.986,0 7.584,2.927 7.584,6.317 0,3.992 -4.123,5.719 -7.783,7.053 -4.852,1.726 -10.174,3.655 -10.174,9.108 0,4.657 3.658,8.515 10.308,8.515 3.391,0 6.786,-1.396 9.116,-3.326 l -1.598,-2.063 c -2.129,1.596 -4.393,2.858 -7.652,2.858 -4.916,0 -7.18,-2.858 -7.18,-5.784 0,-3.525 3.725,-5.055 7.514,-6.451 4.99,-1.863 10.443,-3.524 10.443,-9.776 0,-4.787 -3.857,-8.978 -10.777,-8.978 -4.717,0 -8.844,1.995 -11.702,4.388 L 0,0 Z" /></g><g
       transform="translate(380.916,725.7153)"
       id="g4209"><path
         id="path4211"
         style="fill:#65859d;fill-opacity:1;fill-rule:nonzero;stroke:none"
         d="M 0,0 C 0,8.177 -3.656,12.365 -9.373,12.365 -14.824,12.365 -19.684,7.644 -20.35,0 L 0,0 Z m -9.441,14.896 c 7.582,0 12.238,-5.388 12.238,-14.765 0,-0.798 0,-1.599 -0.133,-2.394 l -23.014,0 c 0.137,-8.046 4.86,-13.833 12.039,-13.833 3.459,0 6.182,1.128 8.577,2.861 l 1.203,-2.263 c -2.528,-1.53 -5.389,-3.126 -10.045,-3.126 -8.184,0 -14.762,6.252 -14.762,16.691 0,10.443 6.781,16.829 13.897,16.829" /></g><g
       transform="translate(393.043,739.8135)"
       id="g4213"><path
         id="path4215"
         style="fill:#65859d;fill-opacity:1;fill-rule:nonzero;stroke:none"
         d="m 0,0 2.527,0 0.266,-4.924 0.203,0 c 3.252,3.26 6.576,5.722 10.969,5.722 6.584,0 9.644,-3.992 9.644,-12.238 l 0,-20.484 -2.929,0 0,20.085 c 0,6.781 -2.129,9.975 -7.317,9.975 -3.791,0 -6.513,-1.997 -10.439,-5.983 l 0,-24.077 -2.924,0 L 0,0 Z" /></g><g
       transform="translate(426.8438,713.6768)"
       id="g4217"><path
         id="path4219"
         style="fill:#65859d;fill-opacity:1;fill-rule:nonzero;stroke:none"
         d="m 0,0 c 2.73,-2.263 5.588,-4.058 10.176,-4.058 4.988,0 7.582,2.927 7.582,6.317 0,3.992 -4.123,5.719 -7.783,7.053 -4.852,1.726 -10.174,3.655 -10.174,9.108 0,4.657 3.658,8.515 10.308,8.515 3.391,0 6.787,-1.396 9.116,-3.326 l -1.6,-2.063 c -2.127,1.596 -4.389,2.858 -7.65,2.858 -4.916,0 -7.18,-2.858 -7.18,-5.784 0,-3.525 3.725,-5.055 7.518,-6.451 4.986,-1.863 10.439,-3.524 10.439,-9.776 0,-4.787 -3.856,-8.978 -10.777,-8.978 -4.717,0 -8.844,1.995 -11.702,4.388 L 0,0 Z" /></g><g
       transform="translate(477.4043,725.7153)"
       id="g4221"><path
         id="path4223"
         style="fill:#65859d;fill-opacity:1;fill-rule:nonzero;stroke:none"
         d="M 0,0 C 0,8.177 -3.656,12.365 -9.373,12.365 -14.824,12.365 -19.684,7.644 -20.35,0 L 0,0 Z m -9.443,14.896 c 7.582,0 12.238,-5.388 12.238,-14.765 0,-0.798 0,-1.599 -0.131,-2.394 l -23.014,0 c 0.137,-8.046 4.86,-13.833 12.039,-13.833 3.459,0 6.186,1.128 8.579,2.861 l 1.201,-2.263 c -2.528,-1.53 -5.389,-3.126 -10.045,-3.126 -8.184,0 -14.762,6.252 -14.762,16.691 0,10.443 6.781,16.829 13.895,16.829" /></g></g></svg>